<svg xmlns="http://www.w3.org/2000/svg" viewBox="0 0 24 24">
  <path d="M8.706,2C8.092,2,7.782,2.742,8.215,3.178l3.075,3.104c0.391,0.395,1.03,0.395,1.421,0l3.075-3.104C16.218,2.742,15.908,2,15.294,2H8.706z" fill="#FBF4F4" />
  <path d="M15.294,22c0.615,0,0.924-0.742,0.491-1.178l-3.075-3.104c-0.391-0.395-1.03-0.395-1.421,0l-3.075,3.104C7.782,21.258,8.092,22,8.706,22H15.294z" fill="#FBF4F4" />
  <path d="M22,16c0-1.105-0.895-2-2-2H4c-1.105,0-2,0.895-2,2s0.895,2,2,2h16C21.105,18,22,17.105,22,16z" opacity=".35" fill="#FBF4F4" />
  <path d="M22,8c0-1.105-0.895-2-2-2H4C2.895,6,2,6.895,2,8s0.895,2,2,2h16C21.105,10,22,9.105,22,8z" opacity=".35" fill="#FBF4F4" />
</svg>