<svg xmlns="http://www.w3.org/2000/svg" viewBox="0 0 24 24">
  <circle cx="4.5" cy="4.5" r="1.5" opacity=".35" fill="#FFFFFF" />
  <circle cx="4.5" cy="8.5" r="1.5" opacity=".35" fill="#FFFFFF" />
  <path d="M19.5,6h-10C8.672,6,8,5.328,8,4.5v0C8,3.672,8.672,3,9.5,3h10C20.328,3,21,3.672,21,4.5v0C21,5.328,20.328,6,19.5,6z" fill="#FFFFFF" />
  <path d="M19.5,10h-10C8.672,10,8,9.328,8,8.5v0C8,7.672,8.672,7,9.5,7h10C20.328,7,21,7.672,21,8.5v0C21,9.328,20.328,10,19.5,10z" fill="#FFFFFF" />
  <circle cx="4.5" cy="15.5" r="1.5" opacity=".35" fill="#FFFFFF" />
  <circle cx="4.5" cy="19.5" r="1.5" opacity=".35" fill="#FFFFFF" />
  <path d="M19.5,17h-10C8.672,17,8,16.328,8,15.5v0C8,14.672,8.672,14,9.5,14h10c0.828,0,1.5,0.672,1.5,1.5v0C21,16.328,20.328,17,19.5,17z" fill="#FFFFFF" />
  <path d="M19.5,21h-10C8.672,21,8,20.328,8,19.5v0C8,18.672,8.672,18,9.5,18h10c0.828,0,1.5,0.672,1.5,1.5v0C21,20.328,20.328,21,19.5,21z" fill="#FFFFFF" />
</svg>