<svg xmlns="http://www.w3.org/2000/svg" viewBox="0 0 50 50">
  <path d="M37 4C34.239 4 32 6.239 32 9C32 11.761 34.239 14 37 14C39.761 14 42 11.761 42 9C42 6.239 39.761 4 37 4 z M 37 6C38.654 6 40 7.346 40 9C40 10.654 38.654 12 37 12C35.346 12 34 10.654 34 9C34 7.346 35.346 6 37 6 z M 20.71875 8.2421875C19.864641 8.2158438 19.017188 8.4660937 18.304688 8.9648438L11.009766 14.072266C9.7037656 14.985266 9.25675 16.749781 9.96875 18.175781C10.38475 19.006781 11.138156 19.620375 12.035156 19.859375C12.935156 20.096375 13.892016 19.939828 14.666016 19.423828L21.115234 15.123047L24.296875 16.394531L19.060547 22.212891C18.137547 23.236891 17.687016 24.559547 17.791016 25.935547C17.813016 26.231547 17.872359 26.517828 17.943359 26.798828L9.0820312 40.980469C8.7370312 41.531469 8.5885156 42.149766 8.6035156 42.759766L5.7695312 39.359375C5.4155312 38.935375 4.786375 38.877469 4.359375 39.230469C3.935375 39.584469 3.8794219 40.215625 4.2324219 40.640625L7.8632812 45L3 45L3 47L10 47L12 47L16 47C16.553 47 17 46.553 17 46C17 45.447 16.553 45 16 45L13.994141 45C14.108141 44.892 14.224266 44.787109 14.322266 44.662109L23.677734 32.755859L26.623047 35.167969L23.449219 39.398438C22.752219 40.327438 22.583047 41.531188 22.998047 42.617188C23.412047 43.703187 24.341422 44.487797 25.482422 44.716797C25.698422 44.759797 25.918766 44.78125 26.134766 44.78125C27.078766 44.78125 27.998578 44.381969 28.642578 43.667969L34.027344 37.683594C34.929344 36.681594 35.382734 35.389969 35.302734 34.042969C35.222734 32.695969 34.618516 31.465172 33.603516 30.576172L29.285156 26.798828L32.058594 22.177734L36.990234 24.916016C37.743234 25.335016 38.572156 25.548828 39.410156 25.548828C39.878156 25.548828 40.348594 25.482609 40.808594 25.349609C42.098594 24.975609 43.162641 24.119453 43.806641 22.939453L47.037109 17.017578C47.767109 15.682578 47.361656 14.038312 46.097656 13.195312C44.783656 12.316313 43.030375 12.638734 42.109375 13.927734L38.767578 18.605469L32.591797 14.193359C32.558797 14.158359 32.532047 14.119938 32.498047 14.085938L30.273438 11.859375C29.121437 10.707375 27.673797 9.8871875 26.091797 9.4921875L21.570312 8.3613281C21.288563 8.2900781 21.003453 8.2509688 20.71875 8.2421875 z M 20.65625 10.244141C20.798813 10.248328 20.942234 10.267734 21.083984 10.302734L25.607422 11.433594C26.837422 11.741594 27.960422 12.376437 28.857422 13.273438L31.083984 15.5C32.059984 16.476 32.245156 17.982062 31.535156 19.164062L27.140625 26.486328C26.893625 26.900328 26.977797 27.434906 27.341797 27.753906L32.289062 32.082031C32.897062 32.614031 33.260594 33.352156 33.308594 34.160156C33.357594 34.968156 33.083969 35.743703 32.542969 36.345703L27.158203 42.330078C26.838203 42.686078 26.348953 42.849859 25.876953 42.755859C25.406953 42.661859 25.038187 42.350344 24.867188 41.902344C24.696188 41.454344 24.763781 40.980656 25.050781 40.597656L28.800781 35.599609C29.121781 35.170609 29.047813 34.566563 28.632812 34.226562L20.878906 27.882812C20.236906 27.357813 19.850109 26.611156 19.787109 25.785156C19.724109 24.960156 19.994828 24.167734 20.548828 23.552734L26.742188 16.669922C26.961188 16.426922 27.047656 16.092438 26.972656 15.773438C26.897656 15.454437 26.673141 15.192313 26.369141 15.070312L21.369141 13.070312C21.251141 13.022313 21.126 13 21 13C20.806 13 20.612312 13.056969 20.445312 13.167969L13.556641 17.759766C13.255641 17.959766 12.901781 18.020734 12.550781 17.927734C12.200781 17.834734 11.918813 17.606203 11.757812 17.283203C11.480813 16.727203 11.64925 16.065938 12.15625 15.710938L19.451172 10.603516C19.807422 10.354516 20.228563 10.231578 20.65625 10.244141 z M 44.318359 14.722656C44.543609 14.681406 44.783281 14.723828 44.988281 14.861328C45.385281 15.124328 45.512203 15.641547 45.283203 16.060547L42.052734 21.982422C41.666734 22.690422 41.028906 23.204734 40.253906 23.427734C39.479906 23.654734 38.666891 23.558969 37.962891 23.167969L33.089844 20.462891L33.251953 20.193359C33.730953 19.394359 33.953125 18.505047 33.953125 17.623047L38.419922 20.814453C38.869922 21.136453 39.493453 21.032031 39.814453 20.582031L43.736328 15.091797C43.881328 14.890297 44.093109 14.763906 44.318359 14.722656 z M 19.027344 28.84375C19.208344 29.04975 19.394328 29.251687 19.611328 29.429688L22.128906 31.488281L12.751953 43.427734C12.534953 43.701734 12.223047 43.865719 11.873047 43.886719C11.516047 43.901719 11.194266 43.780203 10.947266 43.533203C10.548266 43.134203 10.477344 42.520969 10.777344 42.042969L19.027344 28.84375 z" fill="#FFFFFF" />
</svg>