<svg xmlns="http://www.w3.org/2000/svg" viewBox="0 0 24 24">
  <circle cx="12" cy="13" r="9" opacity=".35" fill="#4829C6" />
  <path d="M10.586,14.414c-0.442-0.442-2.193-3.098-3.631-5.322C6.473,8.347,7.347,7.473,8.092,7.954c2.224,1.438,4.88,3.19,5.322,3.631c0.781,0.781,0.781,2.047,0,2.828C12.633,15.195,11.367,15.195,10.586,14.414z" fill="#4829C6" />
  <path d="M13.5,1c-0.386,0-2.614,0-3,0C9.672,1,9,1.672,9,2.5S9.672,4,10.5,4c0.386,0,2.614,0,3,0C14.328,4,15,3.328,15,2.5S14.328,1,13.5,1z" fill="#4829C6" />
  <path d="M20.561,5.146c-0.273-0.273-0.434-0.434-0.707-0.707c-0.586-0.586-1.536-0.586-2.121,0s-0.586,1.536,0,2.121c0.273,0.273,0.434,0.434,0.707,0.707c0.586,0.586,1.536,0.586,2.121,0C21.146,6.682,21.146,5.732,20.561,5.146z" fill="#4829C6" />
</svg>